<svg width="25" height="25" viewBox="0 0 25 25" fill="none" xmlns="http://www.w3.org/2000/svg">
<path d="M18.2746 11.2155V8.64404C18.2746 7.05274 17.6424 5.52662 16.5172 4.4014C15.392 3.27618 13.8659 2.64404 12.2746 2.64404C10.6833 2.64404 9.15713 3.27618 8.03191 4.4014C6.90669 5.52662 6.27455 7.05274 6.27455 8.64404V11.2155C6.27455 14.044 3.70312 14.7298 3.70312 16.3583C3.70312 17.8155 7.04598 18.9298 12.2746 18.9298C17.5031 18.9298 20.846 17.8155 20.846 16.3583C20.846 14.7298 18.2746 14.044 18.2746 11.2155Z" stroke="#323743" stroke-width="2.05714" stroke-miterlimit="10" stroke-linecap="square"/>
<path d="M12.2743 20.6443C11.4077 20.6443 10.5934 20.6152 9.82715 20.5586C9.99051 21.0797 10.316 21.5351 10.7561 21.8584C11.1963 22.1817 11.7282 22.356 12.2743 22.356C12.8204 22.356 13.3523 22.1817 13.7925 21.8584C14.2326 21.5351 14.5581 21.0797 14.7214 20.5586C13.9551 20.6152 13.1409 20.6443 12.2743 20.6443Z" fill="#323743"/>
</svg>
