<svg width="17" height="17" viewBox="0 0 17 17" fill="none" xmlns="http://www.w3.org/2000/svg">
<path d="M2.25871 8.81218C1.89814 8.38533 1.89814 7.76018 2.25871 7.33333C3.23585 6.17733 5.40842 4.07275 8.27414 4.07275C11.1399 4.07275 13.3124 6.17733 14.2896 7.33333C14.6501 7.76018 14.6501 8.38533 14.2896 8.81218C13.3124 9.96818 11.1399 12.0728 8.27414 12.0728C5.40842 12.0728 3.23585 9.96818 2.25871 8.81218Z" stroke="#565D6D" stroke-width="1.37143" stroke-miterlimit="10" stroke-linecap="square"/>
<path d="M8.27414 9.78704C9.85209 9.78704 11.1313 8.50785 11.1313 6.9299C11.1313 5.35194 9.85209 4.07275 8.27414 4.07275C6.69618 4.07275 5.41699 5.35194 5.41699 6.9299C5.41699 8.50785 6.69618 9.78704 8.27414 9.78704Z" stroke="#565D6D" stroke-width="1.37143" stroke-miterlimit="10" stroke-linecap="square"/>
</svg>
