<svg width="17" height="17" viewBox="0 0 17 17" fill="none" xmlns="http://www.w3.org/2000/svg">
<path d="M3.60787 3.81284C4.95453 5.5395 7.4412 8.7395 7.4412 8.7395L7.4412 12.7395C7.4412 13.1062 7.7412 13.4062 8.10787 13.4062L9.4412 13.4062C9.80787 13.4062 10.1079 13.1062 10.1079 12.7395L10.1079 8.7395C10.1079 8.7395 12.5879 5.5395 13.9345 3.81284C14.0109 3.71442 14.0582 3.59652 14.0709 3.47257C14.0835 3.34862 14.0612 3.2236 14.0063 3.11175C13.9514 2.99989 13.8662 2.9057 13.7604 2.83989C13.6546 2.77408 13.5325 2.73929 13.4079 2.7395L4.13453 2.7395C3.5812 2.7395 3.26787 3.37284 3.60787 3.81284Z" fill="#565D6D"/>
</svg>
