<svg width="16" height="16" viewBox="0 0 16 16" fill="none" xmlns="http://www.w3.org/2000/svg">
<path d="M1.92731 8.6759C1.7887 8.47772 1.71436 8.24173 1.71436 7.9999C1.71436 7.75806 1.7887 7.52207 1.92731 7.3239C2.82617 6.05132 5.03931 3.42847 7.99988 3.42847C10.9605 3.42847 13.1736 6.05132 14.0725 7.3239C14.2111 7.52207 14.2854 7.75806 14.2854 7.9999C14.2854 8.24173 14.2111 8.47772 14.0725 8.6759C13.1736 9.94847 10.9605 12.5713 7.99988 12.5713C5.03931 12.5713 2.82617 9.94847 1.92731 8.6759Z" stroke="#171A1F" stroke-width="1.37143" stroke-miterlimit="10" stroke-linecap="square"/>
<path d="M8.00007 10.2858C9.26244 10.2858 10.2858 9.26244 10.2858 8.00007C10.2858 6.7377 9.26244 5.71436 8.00007 5.71436C6.7377 5.71436 5.71436 6.7377 5.71436 8.00007C5.71436 9.26244 6.7377 10.2858 8.00007 10.2858Z" stroke="#171A1F" stroke-width="1.37143" stroke-miterlimit="10" stroke-linecap="square"/>
<path d="M2.28564 13.7142L13.7142 2.28564" stroke="#171A1F" stroke-width="1.37143" stroke-miterlimit="10" stroke-linecap="square"/>
</svg>
