<svg width="37" height="37" viewBox="0 0 37 37" fill="none" xmlns="http://www.w3.org/2000/svg">
<rect x="0.274414" y="0.0727539" width="36" height="36" rx="8" fill="#F06A6A"/>
<g clip-path="url(#clip0_18_2885)">
<path d="M18.2744 10.5728C17.5841 10.5728 17.0244 10.0131 17.0244 9.32275C17.0244 8.6324 17.5841 8.07275 18.2744 8.07275C18.9648 8.07275 19.5244 8.6324 19.5244 9.32275C19.5244 10.0131 18.9648 10.5728 18.2744 10.5728Z" fill="white"/>
<path d="M27.0244 19.3228C26.3341 19.3228 25.7744 18.7631 25.7744 18.0728C25.7744 17.3824 26.3341 16.8228 27.0244 16.8228C27.7148 16.8228 28.2744 17.3824 28.2744 18.0728C28.2744 18.7631 27.7148 19.3228 27.0244 19.3228Z" fill="white" fill-opacity="0.3"/>
<path d="M25.7744 14.9478C25.0841 14.9478 24.5244 14.3881 24.5244 13.6978C24.5244 13.0074 25.0841 12.4478 25.7744 12.4478C26.4648 12.4478 27.0244 13.0074 27.0244 13.6978C27.0244 14.3881 26.4648 14.9478 25.7744 14.9478Z" fill="white" fill-opacity="0.1"/>
<path d="M25.7744 21.1978C25.0841 21.1978 24.5244 21.7574 24.5244 22.4478C24.5244 23.1381 25.0841 23.6978 25.7744 23.6978C26.4648 23.6978 27.0244 23.1381 27.0244 22.4478C27.0244 21.7574 26.4648 21.1978 25.7744 21.1978Z" fill="white" fill-opacity="0.5"/>
<path d="M10.7744 14.9478C11.4648 14.9478 12.0244 14.3881 12.0244 13.6978C12.0244 13.0074 11.4648 12.4478 10.7744 12.4478C10.0841 12.4478 9.52441 13.0074 9.52441 13.6978C9.52441 14.3881 10.0841 14.9478 10.7744 14.9478Z" fill="white"/>
<path d="M10.7744 21.1978C11.4648 21.1978 12.0244 21.7574 12.0244 22.4478C12.0244 23.1381 11.4648 23.6978 10.7744 23.6978C10.0841 23.6978 9.52441 23.1381 9.52441 22.4478C9.52441 21.7574 10.0841 21.1978 10.7744 21.1978Z" fill="white"/>
<path d="M22.6494 11.8228C21.9591 11.8228 21.3994 11.2631 21.3994 10.5728C21.3994 9.8824 21.9591 9.32275 22.6494 9.32275C23.3398 9.32275 23.8994 9.8824 23.8994 10.5728C23.8994 11.2631 23.3398 11.8228 22.6494 11.8228Z" fill="white" fill-opacity="0.05"/>
<path d="M22.6494 24.3228C21.9591 24.3228 21.3994 24.8824 21.3994 25.5728C21.3994 26.2631 21.9591 26.8228 22.6494 26.8228C23.3398 26.8228 23.8994 26.2631 23.8994 25.5728C23.8994 24.8824 23.3398 24.3228 22.6494 24.3228Z" fill="white" fill-opacity="0.7"/>
<path d="M13.8994 11.8228C14.5898 11.8228 15.1494 11.2631 15.1494 10.5728C15.1494 9.8824 14.5898 9.32275 13.8994 9.32275C13.2091 9.32275 12.6494 9.8824 12.6494 10.5728C12.6494 11.2631 13.2091 11.8228 13.8994 11.8228Z" fill="white"/>
<path d="M13.8994 24.3228C14.5898 24.3228 15.1494 24.8824 15.1494 25.5728C15.1494 26.2631 14.5898 26.8228 13.8994 26.8228C13.2091 26.8228 12.6494 26.2631 12.6494 25.5728C12.6494 24.8824 13.2091 24.3228 13.8994 24.3228Z" fill="white"/>
<path d="M18.2744 28.0728C17.5841 28.0728 17.0244 27.5131 17.0244 26.8228C17.0244 26.1324 17.5841 25.5728 18.2744 25.5728C18.9648 25.5728 19.5244 26.1324 19.5244 26.8228C19.5244 27.5131 18.9648 28.0728 18.2744 28.0728Z" fill="white" fill-opacity="0.9"/>
<path d="M9.52441 19.3228C8.83406 19.3228 8.27441 18.7631 8.27441 18.0728C8.27441 17.3824 8.83406 16.8228 9.52441 16.8228C10.2148 16.8228 10.7744 17.3824 10.7744 18.0728C10.7744 18.7631 10.2148 19.3228 9.52441 19.3228Z" fill="white"/>
</g>
<defs>
<clipPath id="clip0_18_2885">
<rect width="20" height="20" fill="white" transform="translate(8.27441 8.07275)"/>
</clipPath>
</defs>
</svg>
