<svg width="24" height="24" viewBox="0 0 24 24" fill="none" xmlns="http://www.w3.org/2000/svg">
<path d="M13.7144 16.2858L3.42868 16.2858C2.95553 16.2858 2.57153 15.9018 2.57153 15.4287L2.57153 3.42868C2.57153 2.95553 2.95553 2.57153 3.42868 2.57153L18.8572 2.57153C19.3304 2.57153 19.7144 2.95553 19.7144 3.42868V9.42868" stroke="black" stroke-width="2.05714" stroke-miterlimit="10" stroke-linecap="square"/>
<path d="M14.5715 12.8571L7.71436 12.8571L7.71436 6L16.2858 6V9.42857" stroke="black" stroke-width="2.05714" stroke-miterlimit="10" stroke-linecap="square"/>
<path d="M5.14279 10.2858C5.61617 10.2858 5.99993 9.90206 5.99993 9.42868C5.99993 8.95529 5.61617 8.57153 5.14279 8.57153C4.6694 8.57153 4.28564 8.95529 4.28564 9.42868C4.28564 9.90206 4.6694 10.2858 5.14279 10.2858Z" fill="black"/>
<path d="M20.5715 21.4285H15.4287C14.9555 21.4285 14.5715 21.0445 14.5715 20.5713L14.5715 10.2856C14.5715 9.81247 14.9555 9.42847 15.4287 9.42847L20.5715 9.42847C21.0447 9.42847 21.4287 9.81247 21.4287 10.2856L21.4287 20.5713C21.4287 21.0445 21.0447 21.4285 20.5715 21.4285Z" stroke="black" stroke-width="2.05714" stroke-miterlimit="10" stroke-linecap="square"/>
<path d="M14.5715 18H21.4287" stroke="black" stroke-width="2.05714" stroke-miterlimit="10" stroke-linecap="square"/>
</svg>
