<svg width="25" height="25" viewBox="0 0 25 25" fill="none" xmlns="http://www.w3.org/2000/svg">
<path d="M12.2748 13.787C13.2216 13.787 13.9891 13.0195 13.9891 12.0727C13.9891 11.1259 13.2216 10.3584 12.2748 10.3584C11.3281 10.3584 10.5605 11.1259 10.5605 12.0727C10.5605 13.0195 11.3281 13.787 12.2748 13.787Z" stroke="#565D6D" stroke-width="2.05714" stroke-miterlimit="10" stroke-linecap="square"/>
<path d="M4.55999 13.787C5.50676 13.787 6.27427 13.0195 6.27427 12.0727C6.27427 11.1259 5.50676 10.3584 4.55999 10.3584C3.61321 10.3584 2.8457 11.1259 2.8457 12.0727C2.8457 13.0195 3.61321 13.787 4.55999 13.787Z" stroke="#565D6D" stroke-width="2.05714" stroke-miterlimit="10" stroke-linecap="square"/>
<path d="M19.9887 13.787C20.9355 13.787 21.703 13.0195 21.703 12.0727C21.703 11.1259 20.9355 10.3584 19.9887 10.3584C19.0419 10.3584 18.2744 11.1259 18.2744 12.0727C18.2744 13.0195 19.0419 13.787 19.9887 13.787Z" stroke="#565D6D" stroke-width="2.05714" stroke-miterlimit="10" stroke-linecap="square"/>
</svg>
