<svg width="25" height="25" viewBox="0 0 25 25" fill="none" xmlns="http://www.w3.org/2000/svg">
<path d="M9.27441 17.0728H7.27441L7.27441 10.0728L9.27441 10.0728L9.27441 17.0728ZM13.2744 17.0728H11.2744L11.2744 7.07275L13.2744 7.07275L13.2744 17.0728ZM17.2744 17.0728H15.2744L15.2744 13.0728H17.2744L17.2744 17.0728ZM19.2744 19.0728L5.27441 19.0728L5.27441 5.07275L19.2744 5.07275L19.2744 19.0728ZM19.2744 3.07275L5.27441 3.07275C4.17441 3.07275 3.27441 3.97275 3.27441 5.07275L3.27441 19.0728C3.27441 20.1728 4.17441 21.0728 5.27441 21.0728L19.2744 21.0728C20.3744 21.0728 21.2744 20.1728 21.2744 19.0728L21.2744 5.07275C21.2744 3.97275 20.3744 3.07275 19.2744 3.07275Z" fill="#424856"/>
</svg>
