<svg width="25" height="25" viewBox="0 0 25 25" fill="none" xmlns="http://www.w3.org/2000/svg">
<path d="M12.2746 14.6441C13.6947 14.6441 14.846 13.4928 14.846 12.0726C14.846 10.6525 13.6947 9.50122 12.2746 9.50122C10.8544 9.50122 9.70312 10.6525 9.70312 12.0726C9.70312 13.4928 10.8544 14.6441 12.2746 14.6441Z" stroke="#424856" stroke-width="2.05714" stroke-miterlimit="10" stroke-linecap="square"/>
<path d="M19.1314 12.0729C19.1304 11.5791 19.0763 11.0868 18.9702 10.6046L21.2965 8.84314L19.5822 5.874L16.8882 7.01057C16.1587 6.34174 15.2928 5.83905 14.3502 5.53714L13.9885 2.64429L10.56 2.64429L10.1982 5.53714C9.25568 5.83905 8.38979 6.34174 7.66024 7.01057L4.96624 5.874L3.25195 8.84314L5.57824 10.6046C5.36343 11.5716 5.36343 12.5741 5.57824 13.5411L3.25195 15.3026L4.96624 18.2717L7.66024 17.1351C8.38979 17.804 9.25568 18.3067 10.1982 18.6086L10.56 21.5014H13.9885L14.3502 18.6086C15.2928 18.3067 16.1587 17.804 16.8882 17.1351L19.5822 18.2717L21.2965 15.3026L18.9702 13.5411C19.0763 13.0589 19.1304 12.5666 19.1314 12.0729Z" stroke="#424856" stroke-width="2.05714" stroke-miterlimit="10" stroke-linecap="square"/>
</svg>
