<svg width="17" height="17" viewBox="0 0 17 17" fill="none" xmlns="http://www.w3.org/2000/svg">
<path d="M15.1279 10.9263L12.6279 13.4258C12.6274 13.4265 12.6267 13.4269 12.6261 13.4275C12.615 13.4385 12.6034 13.449 12.5913 13.4589C12.5855 13.4637 12.5794 13.4678 12.5735 13.4723C12.5663 13.4776 12.5594 13.4831 12.552 13.4881C12.5449 13.4928 12.5376 13.4969 12.5303 13.5012C12.5236 13.5052 12.517 13.5095 12.5101 13.5132C12.5027 13.5172 12.4951 13.5205 12.4876 13.524C12.4803 13.5275 12.4731 13.5311 12.4657 13.5342C12.4584 13.5372 12.451 13.5396 12.4435 13.5423C12.4356 13.5452 12.4277 13.5482 12.4195 13.5507C12.4121 13.5529 12.4046 13.5546 12.3972 13.5565C12.3888 13.5586 12.3806 13.5609 12.3721 13.5626C12.3634 13.5643 12.3547 13.5653 12.3459 13.5666C12.3385 13.5676 12.3312 13.569 12.3237 13.5698C12.3073 13.5714 12.2909 13.5723 12.2744 13.5723C12.2579 13.5723 12.2415 13.5714 12.2251 13.5698C12.2177 13.569 12.2104 13.5677 12.2031 13.5666C12.1943 13.5653 12.1855 13.5643 12.1767 13.5626C12.1683 13.5609 12.1602 13.5586 12.152 13.5565C12.1444 13.5546 12.1367 13.553 12.1293 13.5507C12.1212 13.5482 12.1135 13.5452 12.1056 13.5424C12.0981 13.5397 12.0905 13.5372 12.0831 13.5342C12.0758 13.5312 12.0688 13.5276 12.0617 13.5243C12.054 13.5206 12.0462 13.5172 12.0387 13.5132C12.032 13.5096 12.0256 13.5055 12.0192 13.5016C12.0117 13.4972 12.004 13.4929 11.9967 13.488C11.9897 13.4833 11.9831 13.4781 11.9763 13.473C11.97 13.4683 11.9636 13.4639 11.9574 13.4589C11.9465 13.4499 11.9361 13.4403 11.9259 13.4304C11.9243 13.4288 11.9225 13.4275 11.9209 13.4258L9.42087 10.9258C9.32709 10.8321 9.27441 10.7049 9.27441 10.5723C9.2744 10.4397 9.32708 10.3125 9.42085 10.2187C9.51462 10.1249 9.64181 10.0722 9.77442 10.0722C9.90703 10.0722 10.0342 10.1249 10.128 10.2187L11.7744 11.8651L11.7744 7.07227C11.7744 6.93966 11.8271 6.81248 11.9209 6.71871C12.0146 6.62495 12.1418 6.57227 12.2744 6.57227C12.407 6.57227 12.5342 6.62495 12.628 6.71871C12.7217 6.81248 12.7744 6.93966 12.7744 7.07227L12.7744 11.8653L14.4208 10.2191C14.5146 10.1254 14.6418 10.0727 14.7744 10.0727C14.907 10.0727 15.0342 10.1254 15.1279 10.2192C15.2217 10.313 15.2744 10.4401 15.2743 10.5727C15.2743 10.7053 15.2216 10.8325 15.1279 10.9263ZM8.27435 7.57227L3.77441 7.57227C3.64181 7.57227 3.51463 7.62494 3.42086 7.71871C3.32709 7.81248 3.27441 7.93966 3.27441 8.07227C3.27441 8.20487 3.32709 8.33205 3.42086 8.42582C3.51463 8.51959 3.64181 8.57227 3.77441 8.57227L8.27435 8.57227C8.40696 8.57227 8.53414 8.51959 8.6279 8.42582C8.72167 8.33205 8.77435 8.20487 8.77435 8.07227C8.77435 7.93966 8.72167 7.81248 8.6279 7.71871C8.53414 7.62494 8.40696 7.57227 8.27435 7.57227ZM3.77441 4.57227L12.2744 4.57227C12.407 4.57227 12.5341 4.51959 12.6279 4.42582C12.7217 4.33205 12.7744 4.20487 12.7744 4.07227C12.7744 3.93966 12.7217 3.81248 12.6279 3.71871C12.5341 3.62494 12.407 3.57227 12.2744 3.57227L3.77441 3.57227C3.64181 3.57227 3.51463 3.62494 3.42086 3.71871C3.32709 3.81248 3.27441 3.93966 3.27441 4.07227C3.27441 4.20487 3.32709 4.33205 3.42086 4.42582C3.51463 4.51959 3.64181 4.57227 3.77441 4.57227ZM7.27441 11.5723L3.77441 11.5723C3.64181 11.5723 3.51463 11.6249 3.42086 11.7187C3.32709 11.8125 3.27441 11.9397 3.27441 12.0723C3.27441 12.2049 3.32709 12.3321 3.42086 12.4258C3.51463 12.5196 3.64181 12.5723 3.77441 12.5723L7.27441 12.5723C7.40702 12.5723 7.5342 12.5196 7.62797 12.4258C7.72174 12.3321 7.77441 12.2049 7.77441 12.0723C7.77441 11.9397 7.72174 11.8125 7.62797 11.7187C7.5342 11.6249 7.40702 11.5723 7.27441 11.5723Z" fill="#565D6D"/>
</svg>
