<svg width="37" height="37" viewBox="0 0 37 37" fill="none" xmlns="http://www.w3.org/2000/svg">
<rect x="0.274414" y="0.0727539" width="36" height="36" rx="8" fill="#115467"/>
<path d="M12.5602 13.7871C13.3491 13.7871 13.9887 13.1475 13.9887 12.3585C13.9887 11.5695 13.3491 10.9299 12.5602 10.9299C11.7712 10.9299 11.1316 11.5695 11.1316 12.3585C11.1316 13.1475 11.7712 13.7871 12.5602 13.7871Z" stroke="white" stroke-width="1.71429" stroke-miterlimit="10" stroke-linecap="square"/>
<path d="M12.5602 19.5014C13.3491 19.5014 13.9887 18.8618 13.9887 18.0729C13.9887 17.2839 13.3491 16.6443 12.5602 16.6443C11.7712 16.6443 11.1316 17.2839 11.1316 18.0729C11.1316 18.8618 11.7712 19.5014 12.5602 19.5014Z" stroke="white" stroke-width="1.71429" stroke-miterlimit="10" stroke-linecap="square"/>
<path d="M12.5602 25.2155C13.3491 25.2155 13.9887 24.5759 13.9887 23.787C13.9887 22.998 13.3491 22.3584 12.5602 22.3584C11.7712 22.3584 11.1316 22.998 11.1316 23.787C11.1316 24.5759 11.7712 25.2155 12.5602 25.2155Z" stroke="white" stroke-width="1.71429" stroke-miterlimit="10" stroke-linecap="square"/>
<path d="M16.8458 12.3584L25.4173 12.3584" stroke="white" stroke-width="1.71429" stroke-miterlimit="10" stroke-linecap="square"/>
<path d="M16.8458 18.0728L25.4173 18.0728" stroke="white" stroke-width="1.71429" stroke-miterlimit="10" stroke-linecap="square"/>
<path d="M16.8458 23.7871L25.4173 23.7871" stroke="white" stroke-width="1.71429" stroke-miterlimit="10" stroke-linecap="square"/>
</svg>
